<?xml version="1.0" encoding="us-ascii" standalone="no"?><svg xmlns="http://www.w3.org/2000/svg" xmlns:xlink="http://www.w3.org/1999/xlink" contentStyleType="text/css" height="448px" preserveAspectRatio="none" style="width:987px;height:448px;background:#FFFFFF;" version="1.1" viewBox="0 0 987 448" width="987px" zoomAndPan="magnify"><defs/><g><rect fill="#DDDDDD" height="436.7891" style="stroke:#181818;stroke-width:0.5;" width="312.5" x="462.5" y="6"/><text fill="#000000" font-family="sans-serif" font-size="13" font-weight="bold" lengthAdjust="spacing" textLength="85" x="576.25" y="18.0669">Server Side</text><rect fill="#FFFFFF" height="203.9297" style="stroke:#181818;stroke-width:1.0;" width="10" x="263.5" y="112.4297"/><rect fill="#FFFFFF" height="145.6641" style="stroke:#181818;stroke-width:1.0;" width="10" x="501.5" y="141.5625"/><rect fill="#FFFFFF" height="29.1328" style="stroke:#181818;stroke-width:1.0;" width="10" x="717.5" y="228.9609"/><line style="stroke:#181818;stroke-width:0.5;stroke-dasharray:5.0,5.0;" x1="23" x2="23" y1="81.2969" y2="363.4922"/><line style="stroke:#181818;stroke-width:0.5;stroke-dasharray:5.0,5.0;" x1="268.5" x2="268.5" y1="81.2969" y2="363.4922"/><line style="stroke:#181818;stroke-width:0.5;stroke-dasharray:5.0,5.0;" x1="506.5" x2="506.5" y1="81.2969" y2="363.4922"/><line style="stroke:#181818;stroke-width:0.5;stroke-dasharray:5.0,5.0;" x1="722" x2="722" y1="81.2969" y2="363.4922"/><line style="stroke:#181818;stroke-width:0.5;stroke-dasharray:5.0,5.0;" x1="814" x2="814" y1="81.2969" y2="363.4922"/><line style="stroke:#181818;stroke-width:0.5;stroke-dasharray:5.0,5.0;" x1="919" x2="919" y1="81.2969" y2="363.4922"/><text fill="#000000" font-family="sans-serif" font-size="14" lengthAdjust="spacing" textLength="31" x="5" y="77.9951">User</text><ellipse cx="23.5" cy="13.5" fill="#E2E2F0" rx="8" ry="8" style="stroke:#181818;stroke-width:0.5;"/><path d="M23.5,21.5 L23.5,48.5 M10.5,29.5 L36.5,29.5 M23.5,48.5 L10.5,63.5 M23.5,48.5 L36.5,63.5 " fill="none" style="stroke:#181818;stroke-width:0.5;"/><text fill="#000000" font-family="sans-serif" font-size="14" lengthAdjust="spacing" textLength="31" x="5" y="375.4873">User</text><ellipse cx="23.5" cy="387.2891" fill="#E2E2F0" rx="8" ry="8" style="stroke:#181818;stroke-width:0.5;"/><path d="M23.5,395.2891 L23.5,422.2891 M10.5,403.2891 L36.5,403.2891 M23.5,422.2891 L10.5,437.2891 M23.5,422.2891 L36.5,437.2891 " fill="none" style="stroke:#181818;stroke-width:0.5;"/><rect fill="#E2E2F0" height="46.5938" rx="2.5" ry="2.5" style="stroke:#181818;stroke-width:0.5;" width="120" x="208.5" y="33.7031"/><text fill="#000000" font-family="sans-serif" font-size="14" lengthAdjust="spacing" textLength="58" x="239.5" y="53.6982">Browser</text><text fill="#000000" font-family="sans-serif" font-size="14" lengthAdjust="spacing" textLength="106" x="215.5" y="69.9951">(HTML, CSS, JS)</text><rect fill="#E2E2F0" height="46.5938" rx="2.5" ry="2.5" style="stroke:#181818;stroke-width:0.5;" width="120" x="208.5" y="362.4922"/><text fill="#000000" font-family="sans-serif" font-size="14" lengthAdjust="spacing" textLength="58" x="239.5" y="382.4873">Browser</text><text fill="#000000" font-family="sans-serif" font-size="14" lengthAdjust="spacing" textLength="106" x="215.5" y="398.7842">(HTML, CSS, JS)</text><rect fill="#E2E2F0" height="30.2969" rx="2.5" ry="2.5" style="stroke:#181818;stroke-width:0.5;" width="80" x="466.5" y="50"/><text fill="#000000" font-family="sans-serif" font-size="14" lengthAdjust="spacing" textLength="66" x="473.5" y="69.9951">FlaskApp</text><rect fill="#E2E2F0" height="30.2969" rx="2.5" ry="2.5" style="stroke:#181818;stroke-width:0.5;" width="80" x="466.5" y="362.4922"/><text fill="#000000" font-family="sans-serif" font-size="14" lengthAdjust="spacing" textLength="66" x="473.5" y="382.4873">FlaskApp</text><rect fill="#E2E2F0" height="30.2969" rx="2.5" ry="2.5" style="stroke:#181818;stroke-width:0.5;" width="97" x="674" y="50"/><text fill="#000000" font-family="sans-serif" font-size="14" lengthAdjust="spacing" textLength="83" x="681" y="69.9951">OpenAI_API</text><rect fill="#E2E2F0" height="30.2969" rx="2.5" ry="2.5" style="stroke:#181818;stroke-width:0.5;" width="97" x="674" y="362.4922"/><text fill="#000000" font-family="sans-serif" font-size="14" lengthAdjust="spacing" textLength="83" x="681" y="382.4873">OpenAI_API</text><text fill="#000000" font-family="sans-serif" font-size="14" lengthAdjust="spacing" textLength="60" x="781" y="77.9951">.env File</text><path d="M796,29 C796,19 814,19 814,19 C814,19 832,19 832,29 L832,55 C832,65 814,65 814,65 C814,65 796,65 796,55 L796,29 " fill="#E2E2F0" style="stroke:#181818;stroke-width:1.5;"/><path d="M796,29 C796,39 814,39 814,39 C814,39 832,39 832,29 " fill="none" style="stroke:#181818;stroke-width:1.5;"/><text fill="#000000" font-family="sans-serif" font-size="14" lengthAdjust="spacing" textLength="60" x="781" y="375.4873">.env File</text><path d="M796,388.7891 C796,378.7891 814,378.7891 814,378.7891 C814,378.7891 832,378.7891 832,388.7891 L832,414.7891 C832,424.7891 814,424.7891 814,424.7891 C814,424.7891 796,424.7891 796,414.7891 L796,388.7891 " fill="#E2E2F0" style="stroke:#181818;stroke-width:1.5;"/><path d="M796,388.7891 C796,398.7891 814,398.7891 814,398.7891 C814,398.7891 832,398.7891 832,388.7891 " fill="none" style="stroke:#181818;stroke-width:1.5;"/><rect fill="#E2E2F0" height="30.2969" rx="2.5" ry="2.5" style="stroke:#181818;stroke-width:0.5;" width="124" x="857" y="50"/><text fill="#000000" font-family="sans-serif" font-size="14" lengthAdjust="spacing" textLength="110" x="864" y="69.9951">BrowserDisplay</text><rect fill="#E2E2F0" height="30.2969" rx="2.5" ry="2.5" style="stroke:#181818;stroke-width:0.5;" width="124" x="857" y="362.4922"/><text fill="#000000" font-family="sans-serif" font-size="14" lengthAdjust="spacing" textLength="110" x="864" y="382.4873">BrowserDisplay</text><rect fill="#FFFFFF" height="203.9297" style="stroke:#181818;stroke-width:1.0;" width="10" x="263.5" y="112.4297"/><rect fill="#FFFFFF" height="145.6641" style="stroke:#181818;stroke-width:1.0;" width="10" x="501.5" y="141.5625"/><rect fill="#FFFFFF" height="29.1328" style="stroke:#181818;stroke-width:1.0;" width="10" x="717.5" y="228.9609"/><polygon fill="#181818" points="251.5,108.4297,261.5,112.4297,251.5,116.4297,255.5,112.4297" style="stroke:#181818;stroke-width:1.0;"/><line style="stroke:#181818;stroke-width:1.0;" x1="23.5" x2="257.5" y1="112.4297" y2="112.4297"/><text fill="#000000" font-family="sans-serif" font-size="13" lengthAdjust="spacing" textLength="221" x="30.5" y="107.3638">Enter color query and submit form</text><polygon fill="#181818" points="489.5,137.5625,499.5,141.5625,489.5,145.5625,493.5,141.5625" style="stroke:#181818;stroke-width:1.0;"/><line style="stroke:#181818;stroke-width:1.0;" x1="273.5" x2="495.5" y1="141.5625" y2="141.5625"/><text fill="#000000" font-family="sans-serif" font-size="13" lengthAdjust="spacing" textLength="209" x="280.5" y="136.4966">Send POST request (color query)</text><polygon fill="#181818" points="802,166.6953,812,170.6953,802,174.6953,806,170.6953" style="stroke:#181818;stroke-width:1.0;"/><line style="stroke:#181818;stroke-width:1.0;" x1="511.5" x2="808" y1="170.6953" y2="170.6953"/><text fill="#000000" font-family="sans-serif" font-size="13" lengthAdjust="spacing" textLength="105" x="518.5" y="165.6294">Retrieve API key</text><polygon fill="#181818" points="522.5,195.8281,512.5,199.8281,522.5,203.8281,518.5,199.8281" style="stroke:#181818;stroke-width:1.0;"/><line style="stroke:#181818;stroke-width:1.0;stroke-dasharray:2.0,2.0;" x1="516.5" x2="813" y1="199.8281" y2="199.8281"/><text fill="#000000" font-family="sans-serif" font-size="13" lengthAdjust="spacing" textLength="94" x="528.5" y="194.7622">Return API key</text><polygon fill="#181818" points="705.5,224.9609,715.5,228.9609,705.5,232.9609,709.5,228.9609" style="stroke:#181818;stroke-width:1.0;"/><line style="stroke:#181818;stroke-width:1.0;" x1="511.5" x2="711.5" y1="228.9609" y2="228.9609"/><text fill="#000000" font-family="sans-serif" font-size="13" lengthAdjust="spacing" textLength="187" x="518.5" y="223.895">Send color query and API key</text><polygon fill="#181818" points="522.5,254.0938,512.5,258.0938,522.5,262.0938,518.5,258.0938" style="stroke:#181818;stroke-width:1.0;"/><line style="stroke:#181818;stroke-width:1.0;stroke-dasharray:2.0,2.0;" x1="516.5" x2="721.5" y1="258.0938" y2="258.0938"/><text fill="#000000" font-family="sans-serif" font-size="13" lengthAdjust="spacing" textLength="127" x="528.5" y="253.0278">Return color palette</text><polygon fill="#181818" points="284.5,283.2266,274.5,287.2266,284.5,291.2266,280.5,287.2266" style="stroke:#181818;stroke-width:1.0;"/><line style="stroke:#181818;stroke-width:1.0;stroke-dasharray:2.0,2.0;" x1="278.5" x2="505.5" y1="287.2266" y2="287.2266"/><text fill="#000000" font-family="sans-serif" font-size="13" lengthAdjust="spacing" textLength="179" x="290.5" y="282.1606">Send color palette response</text><polygon fill="#181818" points="907,312.3594,917,316.3594,907,320.3594,911,316.3594" style="stroke:#181818;stroke-width:1.0;"/><line style="stroke:#181818;stroke-width:1.0;" x1="268.5" x2="913" y1="316.3594" y2="316.3594"/><text fill="#000000" font-family="sans-serif" font-size="13" lengthAdjust="spacing" textLength="131" x="275.5" y="311.2935">Display color palette</text><polygon fill="#181818" points="907,341.4922,917,345.4922,907,349.4922,911,345.4922" style="stroke:#181818;stroke-width:1.0;"/><line style="stroke:#181818;stroke-width:1.0;stroke-dasharray:2.0,2.0;" x1="23.5" x2="913" y1="345.4922" y2="345.4922"/><text fill="#000000" font-family="sans-serif" font-size="13" lengthAdjust="spacing" textLength="115" x="30.5" y="340.4263">View color palette</text><!--SRC=[TP7FJiCm3CRlUGgh5pPfum5wG2f_9eP0cyZWX8JSraZHkYGaQKVVdbIaNJADKomx_ldpPwoSCl1coJ2DnebAQ9GEibkZZZxv8MUFkvVd1Tnnle0dFiy0BOGYAzKFP9nCHmQug2bB6Ai6xRxGEabkDCbY_Lbiruna3Px0QdHOeYN8habsi1AD1rrLwg2L9DyIfjqBgnli6Hl4ml9cpEVm89tFLAhnctotP7f0ZxPjUH0ElfGvCAoSwD3Hf3oy0sQKcGCV56qtV0U6FCSwc4NG-OaoRSR6Q015ydDu9MS4TGH-KzXJpw8gB9En_cjhvFGnOPxi2lBEjnox9csHmQVmyiG_biQ6d2DMqoL6f2QsFD8I-hrdrX_C9g39gCZlz9mvXE1_DUFDmk4l8Du57TF-Nm00]--></g></svg>